<?xml version="1.0" encoding="UTF-8"?>
<svg width="164.86px" height="40px" enable-background="new 0 0 164.8566 40" version="1.1" viewBox="0 0 164.8566 40" xml:space="preserve" xmlns="http://www.w3.org/2000/svg">
	<path d="m155.33 0h-145.79c-0.3667 0-0.729 0-1.0948 2e-3 -0.3061 0.0019-0.6098 0.0078-0.9189 0.0126-0.6655 0.0166-1.3394 0.0577-2.0039 0.1768-0.6694 0.1172-1.2915 0.3174-1.9009 0.627-0.5986 0.3066-1.1455 0.705-1.6186 1.1787-0.4786 0.4736-0.875 1.0224-1.1783 1.6211-0.311 0.6084-0.5083 1.2334-0.625 1.9033-0.1206 0.6621-0.1621 1.332-0.1792 2.002-0.0092 0.3066-0.0102 0.6142-0.0151 0.9208v1.0918 20.929 1.0938c0.0049 0.3105 0.0059 0.6113 0.0151 0.9219 0.0171 0.6699 0.0586 1.3398 0.1792 2.0019 0.1167 0.6699 0.314 1.2979 0.625 1.9043 0.3032 0.5957 0.6997 1.1446 1.1782 1.6143 0.4731 0.4775 1.02 0.875 1.6187 1.1787 0.6094 0.3125 1.2314 0.5098 1.9009 0.6308 0.6645 0.1192 1.3384 0.1583 2.0039 0.1768 0.3091 0.0068 0.6128 0.0107 0.9189 0.0107 0.3658 2e-3 0.7281 2e-3 1.0948 2e-3h145.79c0.3594 0 0.7246 0 1.084-2e-3 0.3047 0 0.6172-0.0039 0.9219-0.0107 0.6699-0.0185 1.3418-0.0576 2-0.1768 0.6699-0.121 1.2929-0.3183 1.9082-0.6308 0.5976-0.3037 1.1445-0.7012 1.6172-1.1787 0.4765-0.4697 0.873-1.0186 1.1816-1.6143 0.3066-0.6064 0.5059-1.2344 0.6191-1.9043 0.1231-0.6621 0.1621-1.332 0.1856-2.0019 0.0039-0.3106 0.0039-0.6114 0.0039-0.9219 0.0078-0.3633 0.0078-0.7246 0.0078-1.0938v-20.929c0-0.3662 0-0.7295-0.0078-1.0918 0-0.3066 0-0.6143-0.0039-0.9209-0.0235-0.6699-0.0625-1.3398-0.1856-2.002-0.1132-0.6699-0.3125-1.2949-0.6191-1.9033-0.3086-0.5986-0.7051-1.1475-1.1816-1.6211-0.4727-0.4736-1.0196-0.8721-1.6172-1.1787-0.6153-0.3096-1.2383-0.5098-1.9082-0.627-0.6582-0.1191-1.3301-0.1602-2-0.1768-0.3047-0.0049-0.6172-0.0107-0.9219-0.0127-0.3595-0.0018-0.7247-0.0018-1.0841-0.0018z" fill="#A6A6A6"/>
	<path d="m8.4448 39.125c-0.3047 0-0.602-0.0039-0.9043-0.0107-0.5591-0.0157-1.2222-0.0469-1.8691-0.1631-0.6104-0.1104-1.1528-0.2901-1.6567-0.5479-0.5215-0.2646-0.9902-0.6064-1.397-1.0166-0.4141-0.4062-0.7544-0.873-1.0205-1.3965-0.2593-0.5048-0.4365-1.0468-0.543-1.6572-0.1221-0.6728-0.1533-1.3555-0.1665-1.875-0.0063-0.2109-0.0146-0.9131-0.0146-0.9131v-23.101s0.0088-0.6914 0.0146-0.8945c0.0132-0.5239 0.0444-1.206 0.1655-1.8721 0.107-0.6137 0.2842-1.1552 0.5435-1.6621 0.2656-0.5244 0.6064-0.9936 1.0151-1.3979 0.4136-0.4141 0.8843-0.7568 1.4023-1.0225 0.5137-0.2607 1.0552-0.439 1.6533-0.5439 0.6733-0.1206 1.356-0.1509 1.8755-0.1641l0.9024-0.0122h147.96l0.9131 0.0127c0.5127 0.0127 1.1953 0.043 1.8584 0.1626 0.6025 0.1055 1.1475 0.2847 1.6709 0.5479 0.5127 0.2627 0.9824 0.6055 1.3916 1.0156 0.4092 0.4062 0.7519 0.8779 1.0234 1.4043 0.2578 0.5112 0.4336 1.0527 0.5352 1.6489 0.1162 0.6309 0.1523 1.2788 0.1738 1.8872 0.0029 0.2832 0.0029 0.5874 0.0029 0.8901 0.0079 0.375 0.0079 0.7319 0.0079 1.0918v20.929c0 0.3633 0 0.7178-0.0079 1.0752 0 0.3252 0 0.6231-0.0039 0.9297-0.0205 0.5889-0.0566 1.2364-0.1709 1.8535-0.1035 0.6133-0.2793 1.1553-0.54 1.67-0.2695 0.5195-0.6123 0.9892-1.0156 1.3857-0.4131 0.418-0.8819 0.7588-1.3994 1.0225-0.5186 0.2636-1.0479 0.4384-1.668 0.5498-0.6406 0.1162-1.3037 0.1474-1.8692 0.1631-0.2929 0.0068-0.5996 0.0107-0.8974 0.0107l-1.084 2e-3 -146.88-2e-3z"/>
		<linearGradient id="a" x1="20.098" x2="20.098" y1="7.4183" y2="32.581" gradientUnits="userSpaceOnUse">
			<stop stop-color="#F452FF" offset="0"/>
			<stop stop-color="#832BC1" offset="1"/>
		</linearGradient>
		<path d="m32.182 29.228c-0.2446 0.6213-0.809 1.4961-1.6094 2.1123-0.4621 0.3559-1.0138 0.6961-1.7716 0.9206-0.8078 0.2394-1.8028 0.3203-3.0412 0.3203h-11.323c-1.2383 0-2.2333-0.0809-3.0412-0.3203-0.7578-0.2245-1.3094-0.5647-1.7716-0.9206-0.8003-0.6163-1.3648-1.491-1.6094-2.1123-0.4927-1.2518-0.4977-2.6721-0.4977-3.5666v-11.323c0-0.8945 5e-3 -2.3148 0.4977-3.5666 0.2446-0.6213 0.809-1.4961 1.6094-2.1123 0.4621-0.3559 1.0138-0.6961 1.7716-0.9206 0.8078-0.2394 1.8028-0.3203 3.0412-0.3203h11.323c1.2383 0 2.2333 0.0809 3.0412 0.3203 0.7578 0.2245 1.3094 0.5648 1.7716 0.9206 0.8003 0.6163 1.3648 1.491 1.6094 2.1123 0.4927 1.2518 0.4977 2.6721 0.4977 3.5666v11.323c-1e-4 0.8944-0.0051 2.3147-0.4978 3.5666z" clip-rule="evenodd" fill="url(#a)" fill-rule="evenodd"/>
		<path d="m32.182 29.228c-0.2446 0.6213-0.809 1.4961-1.6094 2.1123-0.4621 0.3559-1.0138 0.6961-1.7716 0.9206-0.8078 0.2394-1.8028 0.3203-3.0412 0.3203h-11.323c-1.2383 0-2.2333-0.0809-3.0412-0.3203-0.7578-0.2245-1.3094-0.5647-1.7716-0.9206-0.8003-0.6163-1.3648-1.491-1.6094-2.1123-0.4927-1.2518-0.4977-2.6721-0.4977-3.5666v-11.323c0-0.8945 5e-3 -2.3148 0.4977-3.5666 0.2446-0.6213 0.809-1.4961 1.6094-2.1123 0.4621-0.3559 1.0138-0.6961 1.7716-0.9206 0.8078-0.2394 1.8028-0.3203 3.0412-0.3203h11.323c1.2383 0 2.2333 0.0809 3.0412 0.3203 0.7578 0.2245 1.3094 0.5648 1.7716 0.9206 0.8003 0.6163 1.3648 1.491 1.6094 2.1123 0.4927 1.2518 0.4977 2.6721 0.4977 3.5666v11.323c-1e-4 0.8944-0.0051 2.3147-0.4978 3.5666z" clip-rule="evenodd" fill="none" fill-rule="evenodd"/>
				<path d="m21.923 21.882c-0.3776-0.3984-1.0408-0.6538-1.8237-0.6538-0.783 0-1.4462 0.2554-1.8238 0.6538-0.197 0.2079-0.3012 0.421-0.334 0.7246-0.0636 0.5879-0.0279 1.0941 0.041 1.9034 0.0656 0.7712 0.1902 1.7996 0.3528 2.847 0.1157 0.7454 0.2097 1.1477 0.2953 1.4358 0.1388 0.4669 0.6575 0.8752 1.4687 0.8752 0.8111 0 1.3298-0.4084 1.4686-0.8752 0.0856-0.2881 0.1796-0.6904 0.2953-1.4358 0.1626-1.0474 0.2872-2.0758 0.3528-2.847 0.0689-0.8094 0.1046-1.3156 0.041-1.9034-0.0328-0.3035-0.137-0.5167-0.334-0.7246zm-3.8811-3.5473c0 1.1373 0.922 2.0593 2.0593 2.0593 1.1374 0 2.0594-0.922 2.0594-2.0593 0-1.1374-0.922-2.0594-2.0594-2.0594-1.1373 0-2.0593 0.922-2.0593 2.0594zm2.0338-8.127c-4.8163 0.0137-8.7628 3.921-8.8224 8.737-0.0484 3.9013 2.442 7.2385 5.9195 8.4617 0.0844 0.0297 0.1701-0.0404 0.1568-0.1289-0.0456-0.3029-0.0886-0.6073-0.1281-0.9066-0.014-0.1058-0.0814-0.197-0.1791-0.2397-2.7486-1.2008-4.6679-3.9574-4.6371-7.1505 0.0404-4.1904 3.4622-7.6066 7.6526-7.6405 4.2839-0.0346 7.78 3.4402 7.78 7.7162 0 3.1611-1.9109 5.8839-4.6381 7.0751-0.0977 0.0427-0.1647 0.1342-0.1786 0.2399-0.0395 0.2992-0.0825 0.6035-0.128 0.9061-0.0134 0.0885 0.0723 0.1586 0.1567 0.129 3.4443-1.2115 5.9202-4.4968 5.9202-8.35-2e-4 -4.8879-3.9835-8.8628-8.8744-8.8488zm-0.1599 4.0595c2.7303-0.1057 4.9851 2.0847 4.9851 4.7919 0 1.3768-0.5833 2.6198-1.5156 3.4952-0.0791 0.0742-0.1216 0.1796-0.1155 0.2879 0.0186 0.3293 0.0118 0.6493-0.0101 1.0107-0.0059 0.0963 0.1021 0.1578 0.1818 0.1035 1.5634-1.0684 2.5917-2.8649 2.5917-4.8973 0-3.3464-2.7874-6.0541-6.1623-5.9233-3.1364 0.1216-5.6527 2.7075-5.6929 5.8461-0.0264 2.0642 1.0082 3.8929 2.5917 4.9747 0.0795 0.0543 0.1872-0.0073 0.1813-0.1035-0.022-0.3616-0.0287-0.6816-0.0102-1.0109 0.0061-0.1082-0.0363-0.2136-0.1152-0.2877-0.9614-0.9026-1.5518-2.1961-1.5142-3.6241 0.0662-2.513 2.0923-4.5659 4.6044-4.6632z" fill="#fff"/>
	<g fill="#fff">
		<path d="m46.223 27.822h-4.7334l-1.1367 3.3564h-2.0049l4.4834-12.419h2.083l4.4834 12.419h-2.0391l-1.1357-3.3564zm-4.2432-1.5489h3.752l-1.8496-5.4482h-0.0518l-1.8506 5.4482z"/>
		<path d="m59.08 26.652c0 2.8135-1.5059 4.6211-3.7783 4.6211-1.29 0-2.3145-0.5771-2.8486-1.584h-0.043v4.4844h-1.8584v-12.049h1.7988v1.5059h0.0342c0.5166-0.9717 1.6182-1.6006 2.8828-1.6006 2.2978 0 3.8125 1.8164 3.8125 4.622zm-1.9102 0c0-1.833-0.9473-3.0381-2.3926-3.0381-1.4199 0-2.375 1.2305-2.375 3.0381 0 1.8242 0.9551 3.0459 2.375 3.0459 1.4454 0 2.3926-1.1962 2.3926-3.0459z"/>
		<path d="m69.045 26.652c0 2.8135-1.5059 4.6211-3.7783 4.6211-1.29 0-2.3144-0.5771-2.8486-1.584h-0.043v4.4844h-1.8584v-12.049h1.7988v1.5059h0.0342c0.5166-0.9717 1.6182-1.6006 2.8828-1.6006 2.2979 0 3.8125 1.8164 3.8125 4.622zm-1.9101 0c0-1.833-0.9473-3.0381-2.3926-3.0381-1.4199 0-2.375 1.2305-2.375 3.0381 0 1.8242 0.9551 3.0459 2.375 3.0459 1.4453 0 2.3926-1.1962 2.3926-3.0459z"/>
		<path d="m70.55 18.76h1.8594v12.419h-1.8594v-12.419z"/>
		<path d="m82.085 28.52c-0.25 1.6436-1.8506 2.7715-3.8984 2.7715-2.6338 0-4.2686-1.7646-4.2686-4.5957 0-2.8398 1.6436-4.6816 4.1904-4.6816 2.5049 0 4.0801 1.7207 4.0801 4.4658v0.6367h-6.3945v0.1123c0 1.5488 0.9727 2.5645 2.4355 2.5645 1.0322 0 1.8418-0.4902 2.0908-1.2734h1.7647zm-6.2823-2.7021h4.5264c-0.043-1.3857-0.9297-2.2979-2.2207-2.2979-1.2822 0-2.2109 0.9297-2.3057 2.2979z"/>
		<path d="m92.087 18.76c2.4092 0 4.0879 1.6611 4.0879 4.0801 0 2.4268-1.7129 4.0957-4.1484 4.0957h-2.668v4.2432h-1.9277v-12.419h4.6562zm-2.7285 6.5586h2.2119c1.6777 0 2.6328-0.9043 2.6328-2.4697 0-1.5664-0.9551-2.4624-2.624-2.4624h-2.2207v4.9321z"/>
		<path d="m96.854 26.652c0-2.8486 1.6777-4.6387 4.2939-4.6387 2.625 0 4.2949 1.79 4.2949 4.6387 0 2.8564-1.6611 4.6387-4.2949 4.6387-2.6328 0-4.2939-1.7822-4.2939-4.6387zm6.6953 0c0-1.9541-0.8955-3.1074-2.4014-3.1074s-2.4014 1.1621-2.4014 3.1074c0 1.9619 0.8955 3.1064 2.4014 3.1064s2.4014-1.1444 2.4014-3.1064z"/>
		<path d="m106.75 26.652c0-2.7969 1.54-4.6221 3.7861-4.6221 1.2998 0 2.3242 0.6025 2.8398 1.6006h0.0352v-4.8711h1.8672v12.419h-1.8076v-1.54h-0.0342c-0.5332 1.0322-1.5664 1.6348-2.8828 1.6348-2.2637 0-3.8037-1.8242-3.8037-4.6211zm1.9013 0c0 1.8584 0.9473 3.0459 2.3926 3.0459 1.4287 0 2.3838-1.2051 2.3838-3.0459 0-1.8252-0.9551-3.0381-2.3838-3.0381-1.4453 1e-4 -2.3926 1.1963-2.3926 3.0381z"/>
		<path d="m123.18 25.24c-0.1631-0.9551-0.9121-1.6689-2.1338-1.6689-1.4287 0-2.376 1.1963-2.376 3.0811 0 1.9277 0.9561 3.0889 2.3926 3.0889 1.1533 0 1.9111-0.5762 2.1172-1.626h1.79c-0.2061 1.9014-1.7295 3.1758-3.9238 3.1758-2.582 0-4.2686-1.7646-4.2686-4.6387 0-2.8145 1.6865-4.6387 4.251-4.6387 2.3232 0 3.7695 1.4629 3.9248 3.2266h-1.7734z"/>
		<path d="m126.11 28.606c0-1.583 1.2129-2.5391 3.3643-2.668l2.4785-0.1377v-0.6885c0-1.0068-0.6621-1.5752-1.7891-1.5752-1.0332 0-1.7559 0.4912-1.9023 1.2744h-1.7383c0.0518-1.6357 1.5742-2.7969 3.6914-2.7969 2.1602 0 3.5889 1.1787 3.5889 2.96v6.2051h-1.7812v-1.4893h-0.043c-0.5254 1.0068-1.6699 1.6445-2.8574 1.6445-1.7725 1e-4 -3.0118-1.1015-3.0118-2.7284zm5.8428-0.8174v-0.6973l-2.2285 0.1377c-1.1104 0.0693-1.7383 0.5508-1.7383 1.3252 0 0.792 0.6543 1.3086 1.6524 1.3086 1.2997 0 2.3144-0.8955 2.3144-2.0742z"/>
		<path d="m138.99 22.022c2.0059 0 3.4424 1.1094 3.4854 2.71h-1.7471c-0.0771-0.7998-0.7568-1.29-1.79-1.29-1.0068 0-1.6777 0.4639-1.6777 1.1699 0 0.542 0.4473 0.9033 1.3857 1.1357l1.5234 0.3535c1.8242 0.4385 2.5127 1.1094 2.5127 2.4355 0 1.6348-1.5488 2.7539-3.7607 2.7539-2.1348 0-3.5713-1.0938-3.709-2.7461h1.8408c0.1299 0.8691 0.8262 1.334 1.9541 1.334 1.1104 0 1.8076-0.4561 1.8076-1.1787 0-0.5596-0.3447-0.8604-1.291-1.1016l-1.6182-0.3955c-1.6357-0.3965-2.4619-1.2314-2.4619-2.4873 0-1.6006 1.4375-2.6933 3.5459-2.6933z"/>
		<path d="m146.72 19.982v2.1431h1.7217v1.4717h-1.7217v4.9912c0 0.7754 0.3447 1.1367 1.1016 1.1367 0.1895 0 0.4912-0.0264 0.6113-0.043v1.4629c-0.2061 0.0518-0.6191 0.0859-1.0322 0.0859-1.833 0-2.5479-0.6885-2.5479-2.4443v-5.1895h-1.3164v-1.4716h1.3164v-2.1431h1.8672z"/>
		<path d="m153.44 22.022c2.0059 0 3.4424 1.1094 3.4854 2.71h-1.7471c-0.0771-0.7998-0.7568-1.29-1.79-1.29-1.0068 0-1.6777 0.4639-1.6777 1.1699 0 0.542 0.4473 0.9033 1.3857 1.1357l1.5234 0.3535c1.8242 0.4385 2.5127 1.1094 2.5127 2.4355 0 1.6348-1.5488 2.7539-3.7607 2.7539-2.1348 0-3.5713-1.0938-3.709-2.7461h1.8408c0.1299 0.8691 0.8262 1.334 1.9541 1.334 1.1104 0 1.8076-0.4561 1.8076-1.1787 0-0.5596-0.3447-0.8604-1.291-1.1016l-1.6182-0.3955c-1.6357-0.3965-2.4619-1.2314-2.4619-2.4873 0-1.6006 1.4375-2.6933 3.5459-2.6933z"/>
	</g>
	<g fill="#fff">
		<path d="m42.958 14.661h-3.7217v-5.9668h0.9263v5.1147h2.7954v0.8521z"/>
		<path d="m44.034 8.8267c0-0.3105 0.2441-0.5459 0.5747-0.5459 0.3311 0 0.5747 0.2354 0.5747 0.5459 0 0.3057-0.2437 0.5415-0.5747 0.5415-0.3306 0-0.5747-0.2359-0.5747-0.5415zm0.1323 1.3315h0.8848v4.5029h-0.8848v-4.5029z"/>
		<path d="m48.131 10.071c1.0132 0 1.6748 0.4712 1.7612 1.2651h-0.8516c-0.083-0.3306-0.4053-0.5415-0.9097-0.5415-0.4966 0-0.8726 0.2354-0.8726 0.5869 0 0.269 0.2275 0.4385 0.7153 0.5503l0.7485 0.1733c0.856 0.1987 1.2568 0.5669 1.2568 1.2285 0 0.8477-0.7896 1.4141-1.8647 1.4141-1.0713 0-1.77-0.4839-1.8486-1.2817h0.8892c0.1118 0.3472 0.4424 0.562 0.98 0.562 0.5542 0 0.9473-0.248 0.9473-0.6079 0-0.2686-0.2109-0.4424-0.6621-0.5498l-0.7856-0.1821c-0.856-0.2026-1.2529-0.5869-1.2529-1.2568 0-0.7984 0.7319-1.3604 1.7495-1.3604z"/>
		<path d="m52.346 9.0371v1.1416h0.9756v0.7485h-0.9756v2.3154c0 0.4717 0.1943 0.6782 0.6367 0.6782 0.1362 0 0.2148-0.0083 0.3389-0.0205v0.7402c-0.1445 0.0244-0.3101 0.0454-0.4839 0.0454-0.9883 0-1.3809-0.3477-1.3809-1.2158v-2.543h-0.7153v-0.7485h0.7153v-1.1415h0.8892z"/>
		<path d="m58.253 13.445c-0.2026 0.8066-0.9224 1.3027-1.9517 1.3027-1.2905 0-2.0801-0.8848-2.0801-2.3242 0-1.439 0.8062-2.3525 2.0757-2.3525 1.2529 0 2.0098 0.856 2.0098 2.27v0.3101h-3.1802v0.0498c0.0293 0.7896 0.4883 1.29 1.1992 1.29 0.5376 0 0.9058-0.1943 1.0713-0.5459h0.856zm-3.1264-1.4512h2.2744c-0.0205-0.707-0.4507-1.1665-1.1079-1.1665-0.6577 0-1.1167 0.4634-1.1665 1.1665z"/>
		<path d="m59.499 10.158h0.856v0.7153h0.0664c0.2188-0.5005 0.6655-0.8022 1.3438-0.8022 1.0049 0 1.5591 0.6035 1.5591 1.6748v2.915h-0.8892v-2.6919c0-0.7236-0.3145-1.0835-0.9717-1.0835-0.6577 0-1.0752 0.4385-1.0752 1.1411v2.6343h-0.8892v-4.5029z"/>
		<path d="m66.918 12.408c0-1.4517 0.8105-2.3364 2.1255-2.3364 1.3105 0 2.1211 0.8848 2.1211 2.3364 0 1.4595-0.8062 2.3403-2.1211 2.3403-1.3194 0-2.1255-0.8808-2.1255-2.3403zm3.333 0c0-0.9761-0.4385-1.5469-1.2075-1.5469-0.7734 0-1.2075 0.5708-1.2075 1.5469 0 0.9839 0.4341 1.5503 1.2075 1.5503 0.769 0 1.2075-0.5703 1.2075-1.5503z"/>
		<path d="m72.357 10.158h0.856v0.7153h0.0664c0.2192-0.5005 0.6655-0.8022 1.3438-0.8022 1.0049 0 1.5591 0.6035 1.5591 1.6748v2.915h-0.8892v-2.6919c0-0.7236-0.3145-1.0835-0.9717-1.0835-0.6577 0-1.0752 0.4385-1.0752 1.1411v2.6343h-0.8892v-4.5029z"/>
	</g>
</svg>