<svg xmlns="http://www.w3.org/2000/svg" width="165" height="40" viewBox="0 0 660 160"><path d="M621.8.5H30.9c-.4.1-.6.1-.8.1-3.1 0-5.6.2-7.9.7-2.7.4-5.1 1.2-7.5 2.4-2.3 1.2-4.5 2.8-6.4 4.6-1.8 1.9-3.4 4-4.6 6.4-1.2 2.3-2 4.8-2.4 7.5-.5 2.3-.7 4.8-.7 7.9-.1.5-.1 1.1-.1 1.8v96.2c0 .7 0 1.3.1 1.8 0 3.2.2 5.6.7 7.9.4 2.8 1.2 5.2 2.4 7.5 1.2 2.4 2.8 4.5 4.7 6.4 1.8 1.8 3.9 3.4 6.3 4.6 2.3 1.2 4.8 2 7.5 2.4 2.3.5 4.7.7 7.9.7 1.3.1 2.5.1 3.7.1l596.1-.1c3.2 0 5.6-.2 7.9-.7 2.7-.4 5.2-1.2 7.5-2.4 2.4-1.2 4.5-2.8 6.4-4.7 1.8-1.8 3.4-3.9 4.6-6.3 1.2-2.3 2-4.8 2.4-7.5.4-2.2.6-4.5.8-7.9V30.1l-.8-7.9c-.4-2.7-1.2-5.1-2.4-7.5s-2.8-4.5-4.7-6.4a26.17 26.17 0 0 0-6.3-4.6c-2.4-1.2-4.8-2-7.5-2.4-2.3-.5-4.8-.7-7.9-.7-.4 0-.4 0-.7-.1h-7.4z" fill="#000" stroke="#222326"></path><path d="M357.4 74.7c2.1 1.2 4.7.5 6-1.6 1.2-2.1.5-4.8-1.5-6-17.4-10.3-44.8-11.3-61.3-6.3-2.4.7-3.7 3.2-3 5.5s3.2 3.6 5.5 2.9c14.4-4.4 39.2-3.5 54.3 5.5zm-.5 13.3c1-1.7.5-4-1.2-5-14.4-9-35.5-11.5-52.5-6.3-1.9.6-3 2.6-2.4 4.6.5 1.9 2.6 3 4.5 2.4 14.9-4.5 34-2.3 46.6 5.5 1.7 1.1 3.9.5 5-1.2zm-5.7 12.8c.8-1.4.4-3.2-1-4-12.3-7.6-27.6-9.4-45.4-5.3-1.6.4-2.5 2-2.2 3.5.4 1.6 1.9 2.6 3.5 2.2 16.3-3.7 30.1-2.2 41.1 4.6 1.3.8 3.1.4 4-1zM329.7 33c25.9 0 46.8 21 46.8 47s-20.9 47-46.8 47c-25.8 0-46.7-21-46.7-47s20.9-47 46.7-47zm80.5 43.4c9.8 2.4 13.8 6.1 13.8 12.9 0 8-6.1 13.1-15.4 13.1-6.7 0-12.8-2.4-17.8-6.8a.53.53 0 0 1-.1-.8l4.4-5.3c.1-.1.2-.1.4-.2a.76.76 0 0 1 .4.2c4.3 3.7 8.1 5.3 12.8 5.3 4.3 0 6.9-1.8 6.9-4.8 0-2.7-1.3-4.2-9-6-9.1-2.2-14.3-5-14.3-13.1 0-7.5 6-12.8 14.8-12.8 5.9 0 11 1.8 15.5 5.4.2.2.2.5.1.7l-4 5.6c-.1.1-.2.2-.3.2-.2.1-.3 0-.4-.1-3.8-2.8-7.4-4.2-11.1-4.2s-6.2 1.8-6.2 4.5c0 2.9 1.4 4.3 9.5 6.2zm41.9 9c0-5.6-3.6-9.6-8.5-9.6-5 0-8.7 4.1-8.7 9.6 0 5.6 3.7 9.7 8.7 9.7s8.5-4 8.5-9.7zm-6.8-17c7.5 0 15.2 5.8 15.2 17s-7.7 17.1-15.2 17.1c-4.1 0-7.5-1.5-10.2-4.6v13a.47.47 0 0 1-.5.5h-7.3a.47.47 0 0 1-.5-.5V69.6a.47.47 0 0 1 .5-.5h7.3a.47.47 0 0 1 .5.5v3.7c2.7-3.3 6.1-4.9 10.2-4.9zm34.8 26.8c5.2 0 9-4.1 9-9.6 0-5.6-3.9-9.8-9.1-9.8s-9 4.1-9 9.6c0 5.6 3.9 9.8 9.1 9.8zm0-26.8c9.7 0 17.3 7.5 17.3 17 0 9.6-7.7 17.1-17.4 17.1s-17.3-7.4-17.3-16.9c0-9.7 7.7-17.2 17.4-17.2zm38.1.7a.47.47 0 0 1 .5.5v6.2c0 .3-.2.6-.5.6h-8v15c0 2.4 1.1 3.4 3.4 3.4 1.5 0 2.8-.3 4.2-1 .2-.1.4-.1.6 0 .1.1.2.3.2.5v5.9a.55.55 0 0 1-.3.5c-2 1.1-4.1 1.7-6.7 1.7-6.4 0-9.6-3.4-9.6-9.9V76.4h-3.5c-.3 0-.5-.3-.5-.6v-6.2a.47.47 0 0 1 .5-.5h3.5v-8.2c0-.3.2-.6.5-.6h7.2c.3 0 .5.3.5.6v8.2h8zm27.7 0h12.3c.3 0 .5.1.5.3l8.5 22.2 7.7-22.2a.55.55 0 0 1 .5-.3h7.5c.2 0 .3.1.4.2.1.2.2.3.1.5l-12.5 32.6c-2.6 6.7-5.6 9.2-10.9 9.2-2.9 0-5.2-.6-7.7-2-.3-.1-.4-.4-.3-.7l2.5-5.4c0-.1.2-.2.3-.3.1 0 .3 0 .4.1 1.4.7 2.7 1.1 4 1.1 1.6 0 2.7-.5 3.9-3.1l-10.3-24.9H546v24.9a.47.47 0 0 1-.5.5h-7.2c-.3 0-.6-.2-.6-.5V76.4h-3.4a.65.65 0 0 1-.6-.6v-6.2a.65.65 0 0 1 .6-.6h3.4v-1.5c0-7.2 3.6-10.9 10.2-10.9 2.8 0 4.6.4 6 .8.3.1.4.3.4.5v6.2a.76.76 0 0 1-.2.4c-.1.1-.3.1-.5.1-1.3-.5-2.5-.8-4-.8-2.6 0-3.7 1.3-3.7 4.3v1zm-16.1 0c.3 0 .6.2.6.5v31.7c0 .3-.3.5-.6.5h-7.2a.47.47 0 0 1-.5-.5V69.6a.47.47 0 0 1 .5-.5h7.2zm-3.5-14.5c2.8 0 5.1 2.3 5.1 5.2s-2.3 5.2-5.1 5.2c-2.9 0-5.2-2.3-5.2-5.2s2.3-5.2 5.2-5.2zm63.6 17.6h-1.4v1.7h1.4c.6 0 1-.3 1-.8 0-.6-.4-.9-1-.9zm.8 2.4l1.5 2.1H591l-1.3-1.9h-1.2v1.9h-1v-5.4h2.4c1.2 0 2.1.6 2.1 1.7 0 .9-.5 1.4-1.3 1.6zm-1.1-5.1c-2.6 0-4.6 2.1-4.6 4.6 0 2.6 2 4.6 4.6 4.6s4.5-2 4.5-4.6c0-2.5-1.9-4.6-4.5-4.6zm0 9.7c-2.9 0-5.1-2.3-5.1-5.1s2.2-5.1 5.1-5.1 5.1 2.3 5.1 5.1-2.3 5.1-5.1 5.1z" fill="#1ed760"></path><path d="M78.4 91.6H63V67.5h4.7v19.6h10.7v4.5zm11.2 0h-4.7V67.5h4.7v24.1zm25-18.3l-4.3 1.2c-.2-1.3-1.3-3.4-4.4-3.4-2.2 0-3.7 1.5-3.7 3.1 0 1.3.8 2.4 2.6 2.7l3.4.7c4.3.8 6.7 3.7 6.7 7.1 0 3.7-3.1 7.4-8.7 7.4-6.4 0-9.2-4.1-9.6-7.5l4.4-1.2c.2 2.4 1.8 4.5 5.2 4.5 2.5 0 3.9-1.2 3.9-2.9 0-1.4-1-2.5-2.9-2.9l-3.4-.6c-3.8-.8-6.3-3.3-6.3-7 0-4.2 3.9-7.5 8.4-7.5 5.9 0 8.1 3.5 8.7 6.3zM140 72h-7.7v19.6h-4.7V72H120v-4.5h20V72zm21.5 19.6h-15.1V67.5h15.1v4.4h-10.4v5.5h9.4v4.2h-9.4v5.6h10.4v4.4zm28.2 0h-5l-10.9-17.1v17.1h-4.7V67.5h5.8l10.1 16v-16h4.7v24.1zm22.7-12.1c0 5.5 3.8 8.1 7.5 8.1 3.8 0 7.6-2.6 7.6-8.1 0-5.4-3.8-8-7.6-8-3.7 0-7.5 2.6-7.5 8zm-4.8.1c0-7.8 5.8-12.6 12.3-12.6 6.6 0 12.4 4.8 12.4 12.6 0 7.7-5.8 12.5-12.4 12.5-6.5 0-12.3-4.8-12.3-12.5zm52.6 12h-4.9l-11-17.1v17.1h-4.7V67.5h5.9l10 16v-16h4.7v24.1z" fill="#fff"></path></svg>